<?xml version="1.0" encoding="UTF-8"?>
<svg xmlns="http://www.w3.org/2000/svg" version="1.1" width="500" height="500" viewBox="0 0 500 500"><rect x="0" y="0" width="500" height="500" fill="#ffffff"/><g transform="scale(17.241)"><g transform="translate(0,0)"><path fill-rule="evenodd" d="M9 0L9 1L8 1L8 2L9 2L9 3L8 3L8 4L10 4L10 7L11 7L11 4L12 4L12 5L13 5L13 4L14 4L14 7L15 7L15 6L16 6L16 8L17 8L17 10L15 10L15 11L14 11L14 12L13 12L13 13L12 13L12 11L13 11L13 10L11 10L11 11L10 11L10 9L11 9L11 8L6 8L6 9L5 9L5 8L0 8L0 10L1 10L1 11L0 11L0 14L1 14L1 12L3 12L3 9L4 9L4 10L5 10L5 11L4 11L4 13L2 13L2 14L3 14L3 17L1 17L1 16L2 16L2 15L0 15L0 21L1 21L1 18L2 18L2 19L3 19L3 17L5 17L5 18L6 18L6 19L4 19L4 20L2 20L2 21L7 21L7 20L9 20L9 21L8 21L8 23L9 23L9 24L8 24L8 29L10 29L10 28L11 28L11 29L12 29L12 27L13 27L13 26L11 26L11 24L10 24L10 23L9 23L9 22L10 22L10 21L12 21L12 22L13 22L13 23L12 23L12 25L13 25L13 24L14 24L14 25L16 25L16 26L15 26L15 27L14 27L14 28L15 28L15 29L16 29L16 27L19 27L19 28L22 28L22 27L23 27L23 26L24 26L24 27L26 27L26 26L24 26L24 25L27 25L27 28L24 28L24 29L27 29L27 28L28 28L28 26L29 26L29 24L25 24L25 23L27 23L27 22L29 22L29 20L28 20L28 19L27 19L27 16L28 16L28 15L27 15L27 12L28 12L28 11L27 11L27 12L25 12L25 9L26 9L26 8L25 8L25 9L24 9L24 8L23 8L23 9L22 9L22 8L20 8L20 9L18 9L18 8L17 8L17 4L18 4L18 7L19 7L19 5L21 5L21 3L20 3L20 2L21 2L21 0L18 0L18 1L17 1L17 0L16 0L16 1L14 1L14 3L13 3L13 4L12 4L12 2L13 2L13 1L11 1L11 2L10 2L10 0ZM16 1L16 2L17 2L17 3L16 3L16 4L15 4L15 5L16 5L16 4L17 4L17 3L18 3L18 4L20 4L20 3L19 3L19 2L20 2L20 1L19 1L19 2L17 2L17 1ZM10 3L10 4L11 4L11 3ZM8 5L8 7L9 7L9 5ZM12 6L12 9L15 9L15 8L13 8L13 6ZM20 6L20 7L21 7L21 6ZM27 8L27 9L28 9L28 10L29 10L29 9L28 9L28 8ZM1 9L1 10L2 10L2 9ZM6 9L6 10L8 10L8 11L5 11L5 14L4 14L4 16L5 16L5 14L7 14L7 15L6 15L6 16L7 16L7 15L8 15L8 17L6 17L6 18L7 18L7 19L6 19L6 20L7 20L7 19L9 19L9 20L11 20L11 19L9 19L9 18L10 18L10 17L9 17L9 15L11 15L11 18L13 18L13 19L12 19L12 21L14 21L14 22L16 22L16 21L17 21L17 20L18 20L18 21L19 21L19 20L21 20L21 19L22 19L22 18L21 18L21 17L20 17L20 16L21 16L21 14L22 14L22 17L23 17L23 18L24 18L24 19L25 19L25 21L26 21L26 20L27 20L27 19L25 19L25 18L24 18L24 17L26 17L26 16L27 16L27 15L26 15L26 13L25 13L25 12L24 12L24 9L23 9L23 12L22 12L22 13L20 13L20 12L21 12L21 11L22 11L22 10L21 10L21 9L20 9L20 10L18 10L18 11L16 11L16 12L18 12L18 11L19 11L19 13L20 13L20 14L17 14L17 13L14 13L14 14L12 14L12 13L11 13L11 12L10 12L10 13L8 13L8 14L7 14L7 13L6 13L6 12L9 12L9 9ZM23 12L23 13L22 13L22 14L23 14L23 13L24 13L24 14L25 14L25 13L24 13L24 12ZM10 13L10 14L11 14L11 13ZM28 13L28 14L29 14L29 13ZM8 14L8 15L9 15L9 14ZM15 14L15 15L14 15L14 16L13 16L13 15L12 15L12 17L13 17L13 18L14 18L14 19L15 19L15 20L16 20L16 19L17 19L17 18L20 18L20 17L18 17L18 16L17 16L17 14ZM15 15L15 17L14 17L14 18L17 18L17 16L16 16L16 15ZM23 15L23 16L24 16L24 15ZM8 17L8 18L9 18L9 17ZM28 17L28 18L29 18L29 17ZM18 19L18 20L19 20L19 19ZM21 21L21 24L24 24L24 21ZM18 22L18 23L14 23L14 24L18 24L18 25L19 25L19 27L20 27L20 23L19 23L19 22ZM22 22L22 23L23 23L23 22ZM9 24L9 26L10 26L10 27L11 27L11 26L10 26L10 24ZM22 25L22 26L21 26L21 27L22 27L22 26L23 26L23 25ZM17 28L17 29L18 29L18 28ZM0 0L0 7L7 7L7 0ZM1 1L1 6L6 6L6 1ZM2 2L2 5L5 5L5 2ZM22 0L22 7L29 7L29 0ZM23 1L23 6L28 6L28 1ZM24 2L24 5L27 5L27 2ZM0 22L0 29L7 29L7 22ZM1 23L1 28L6 28L6 23ZM2 24L2 27L5 27L5 24Z" fill="#000000"/></g></g></svg>
