<?xml version="1.0" encoding="UTF-8"?>
<svg xmlns="http://www.w3.org/2000/svg" version="1.1" width="500" height="500" viewBox="0 0 500 500"><rect x="0" y="0" width="500" height="500" fill="#ffffff"/><g transform="scale(17.241)"><g transform="translate(0,0)"><path fill-rule="evenodd" d="M8 0L8 1L9 1L9 2L8 2L8 5L9 5L9 4L11 4L11 5L10 5L10 10L9 10L9 8L8 8L8 9L7 9L7 8L6 8L6 9L7 9L7 10L6 10L6 11L5 11L5 13L8 13L8 14L4 14L4 15L3 15L3 14L2 14L2 11L4 11L4 10L5 10L5 9L4 9L4 8L0 8L0 9L3 9L3 10L2 10L2 11L1 11L1 12L0 12L0 14L1 14L1 16L0 16L0 17L1 17L1 18L0 18L0 19L1 19L1 18L3 18L3 19L4 19L4 17L5 17L5 20L4 20L4 21L8 21L8 22L9 22L9 24L11 24L11 26L10 26L10 25L8 25L8 29L9 29L9 28L10 28L10 27L11 27L11 26L12 26L12 28L11 28L11 29L12 29L12 28L14 28L14 27L15 27L15 26L17 26L17 27L19 27L19 28L18 28L18 29L19 29L19 28L20 28L20 29L21 29L21 27L22 27L22 25L23 25L23 28L24 28L24 29L25 29L25 28L26 28L26 25L28 25L28 27L27 27L27 29L28 29L28 27L29 27L29 24L26 24L26 25L25 25L25 23L26 23L26 22L27 22L27 23L28 23L28 22L29 22L29 21L27 21L27 18L28 18L28 15L29 15L29 13L27 13L27 12L26 12L26 11L28 11L28 12L29 12L29 11L28 11L28 10L29 10L29 8L28 8L28 10L26 10L26 11L24 11L24 10L25 10L25 9L27 9L27 8L24 8L24 9L22 9L22 8L21 8L21 6L20 6L20 5L21 5L21 4L20 4L20 3L21 3L21 2L20 2L20 3L19 3L19 2L18 2L18 3L17 3L17 6L16 6L16 7L17 7L17 9L18 9L18 10L16 10L16 11L15 11L15 12L14 12L14 11L13 11L13 6L14 6L14 7L15 7L15 5L16 5L16 4L15 4L15 3L16 3L16 2L17 2L17 0L16 0L16 2L15 2L15 3L14 3L14 2L13 2L13 0L12 0L12 1L11 1L11 0L10 0L10 1L9 1L9 0ZM19 0L19 1L21 1L21 0ZM11 2L11 4L12 4L12 3L13 3L13 2ZM18 3L18 6L17 6L17 7L18 7L18 6L19 6L19 8L20 8L20 6L19 6L19 3ZM13 4L13 5L12 5L12 6L11 6L11 8L12 8L12 6L13 6L13 5L14 5L14 4ZM8 6L8 7L9 7L9 6ZM14 8L14 10L15 10L15 8ZM11 9L11 10L12 10L12 9ZM20 9L20 10L18 10L18 11L16 11L16 12L15 12L15 13L16 13L16 14L14 14L14 13L13 13L13 14L12 14L12 16L10 16L10 15L11 15L11 13L12 13L12 12L13 12L13 11L11 11L11 13L10 13L10 14L8 14L8 16L10 16L10 18L9 18L9 17L8 17L8 19L6 19L6 20L8 20L8 21L10 21L10 23L14 23L14 24L12 24L12 26L13 26L13 27L14 27L14 26L13 26L13 25L15 25L15 24L16 24L16 25L17 25L17 26L21 26L21 25L20 25L20 24L19 24L19 23L17 23L17 24L16 24L16 21L17 21L17 19L19 19L19 21L20 21L20 19L21 19L21 16L22 16L22 19L23 19L23 16L24 16L24 15L25 15L25 17L24 17L24 20L26 20L26 19L25 19L25 18L26 18L26 17L27 17L27 15L25 15L25 14L27 14L27 13L25 13L25 12L22 12L22 10L21 10L21 9ZM7 10L7 11L6 11L6 12L8 12L8 13L9 13L9 11L8 11L8 10ZM20 10L20 11L18 11L18 12L17 12L17 13L18 13L18 12L20 12L20 13L19 13L19 14L17 14L17 15L18 15L18 16L19 16L19 15L20 15L20 14L21 14L21 15L22 15L22 16L23 16L23 15L24 15L24 14L23 14L23 13L22 13L22 14L21 14L21 12L20 12L20 11L21 11L21 10ZM3 12L3 13L4 13L4 12ZM13 14L13 15L14 15L14 16L12 16L12 17L14 17L14 16L15 16L15 20L14 20L14 21L13 21L13 22L14 22L14 21L15 21L15 20L16 20L16 19L17 19L17 18L18 18L18 17L17 17L17 18L16 18L16 15L14 15L14 14ZM22 14L22 15L23 15L23 14ZM2 15L2 17L4 17L4 16L5 16L5 17L6 17L6 18L7 18L7 17L6 17L6 16L7 16L7 15L6 15L6 16L5 16L5 15L4 15L4 16L3 16L3 15ZM10 18L10 21L11 21L11 20L12 20L12 19L11 19L11 18ZM8 19L8 20L9 20L9 19ZM1 20L1 21L3 21L3 20ZM21 21L21 24L24 24L24 21ZM22 22L22 23L23 23L23 22ZM17 24L17 25L18 25L18 24ZM24 26L24 28L25 28L25 26ZM15 28L15 29L16 29L16 28ZM0 0L0 7L7 7L7 0ZM1 1L1 6L6 6L6 1ZM2 2L2 5L5 5L5 2ZM22 0L22 7L29 7L29 0ZM23 1L23 6L28 6L28 1ZM24 2L24 5L27 5L27 2ZM0 22L0 29L7 29L7 22ZM1 23L1 28L6 28L6 23ZM2 24L2 27L5 27L5 24Z" fill="#000000"/></g></g></svg>
